<svg xmlns="http://www.w3.org/2000/svg" viewBox="0 0 256 256" role="img" aria-labelledby="title desc">
  <title id="title">Robot Sorting Logic Lab</title>
  <desc id="desc">A robotic arm above a conveyor sorting geometric shapes.</desc>
  <defs>
    <linearGradient id="bg" x1="0" y1="0" x2="1" y2="1">
      <stop offset="0%" stop-color="#162b3d"/>
      <stop offset="100%" stop-color="#08121a"/>
    </linearGradient>
    <linearGradient id="arm" x1="0" y1="0" x2="1" y2="1">
      <stop offset="0%" stop-color="#ffbf5a"/>
      <stop offset="100%" stop-color="#ca650a"/>
    </linearGradient>
    <linearGradient id="belt" x1="0" y1="0" x2="1" y2="0">
      <stop offset="0%" stop-color="#213544"/>
      <stop offset="100%" stop-color="#101922"/>
    </linearGradient>
  </defs>
  <rect width="256" height="256" rx="42" fill="url(#bg)"/>
  <rect x="26" y="154" width="150" height="34" rx="17" fill="url(#belt)" stroke="#4d738d" stroke-width="4"/>
  <rect x="42" y="161" width="18" height="20" rx="9" fill="#365167"/>
  <rect x="76" y="161" width="18" height="20" rx="9" fill="#365167"/>
  <rect x="110" y="161" width="18" height="20" rx="9" fill="#365167"/>
  <rect x="144" y="161" width="18" height="20" rx="9" fill="#365167"/>
  <circle cx="70" cy="142" r="15" fill="#63c4ff" stroke="#1d84c9" stroke-width="4"/>
  <rect x="105" y="128" width="30" height="30" rx="6" fill="#ff7d78" stroke="#cc3f4d" stroke-width="4"/>
  <path d="M154 158l15-27 15 27z" fill="#ffd45f" stroke="#d69d18" stroke-width="4" stroke-linejoin="round"/>
  <path d="M201 74c0-16 10-24 24-24 14 0 24 8 24 24v44c0 24-10 38-24 38s-24-14-24-38z" fill="#274051" opacity=".95"/>
  <circle cx="224" cy="60" r="20" fill="#10202b"/>
  <g transform="translate(214 58) rotate(-155)">
    <rect x="-8" y="-9" width="70" height="18" rx="9" fill="url(#arm)" stroke="#663007" stroke-width="4"/>
    <circle cx="0" cy="0" r="15" fill="#ffd17c" stroke="#663007" stroke-width="4"/>
    <circle cx="62" cy="0" r="10" fill="#ffd17c" stroke="#663007" stroke-width="4"/>
    <g transform="translate(62 0) rotate(34)">
      <rect x="-6" y="-7" width="48" height="14" rx="7" fill="url(#arm)" stroke="#663007" stroke-width="4"/>
      <circle cx="0" cy="0" r="9" fill="#ffd17c" stroke="#663007" stroke-width="4"/>
      <circle cx="42" cy="0" r="8" fill="#d9e4eb" stroke="#314857" stroke-width="4"/>
      <rect x="42" y="-16" width="7" height="14" rx="3.5" fill="#d9e4eb" stroke="#314857" stroke-width="3"/>
      <rect x="42" y="2" width="7" height="14" rx="3.5" fill="#d9e4eb" stroke="#314857" stroke-width="3"/>
    </g>
  </g>
  <path d="M195 173c11 0 20 4 24 12l5 28h-58l5-28c4-8 13-12 24-12z" fill="#274e66" stroke="#6ea6c6" stroke-width="4"/>
  <text x="24" y="38" fill="#eef7fb" font-family="Segoe UI, Arial, sans-serif" font-size="22" font-weight="700">Logic</text>
  <text x="24" y="62" fill="#8fb2c9" font-family="Segoe UI, Arial, sans-serif" font-size="14" font-weight="700">scan • compare • sort</text>
</svg>
