<?xml version="1.0" encoding="UTF-8"?>
<svg id="Layer_1" xmlns="http://www.w3.org/2000/svg" version="1.1" viewBox="0 0 1920 1200">
  <!-- Generator: Adobe Illustrator 30.0.0, SVG Export Plug-In . SVG Version: 2.1.1 Build 123)  -->
  <defs>
    <style>
      .st0, .st1, .st2, .st3 {
        isolation: isolate;
      }

      .st0, .st1, .st3 {
        font-family: ArialMT, Arial;
      }

      .st0, .st1, .st4 {
        fill: #eee;
      }

      .st0, .st3 {
        font-size: 19px;
      }

      .st5 {
        fill: none;
        stroke: #777;
      }

      .st5, .st6 {
        stroke-width: 2px;
      }

      .st7 {
        fill: #777;
      }

      .st1 {
        font-size: 17px;
      }

      .st3 {
        fill: #bbb;
      }

      .st6 {
        fill: #262626;
        stroke: #555;
      }
    </style>
  </defs>
  <rect id="step11" class="st6" x="1437.82" y="728.07" width="100" height="40"/>
  <text class="st0" transform="translate(1463.18 753.14)"><tspan x="0" y="0">LOST</tspan></text>
  <rect id="step10" class="st6" x="1257.82" y="728.07" width="100" height="40"/>
  <text class="st0" transform="translate(1284.61 753.13)"><tspan x="0" y="0">WON</tspan></text>
  <rect id="step0" class="st6" x="880" y="25.85" width="160" height="40" rx="13.85" ry="13.85"/>
  <rect id="step01" data-name="step0" class="st6" x="1317.82" y="835.79" width="160" height="40" rx="13.85" ry="13.85"/>
  <text class="st0" transform="translate(939.94 50.92)"><tspan x="0" y="0">Start</tspan></text>
  <line class="st5" x1="960" y1="65.85" x2="960" y2="85.47"/>
  <polygon class="st7" points="960 85.47 954 77.47 966 77.47 960 85.47"/>
  <rect id="step1" class="st6" x="824.16" y="185.44" width="271.67" height="50"/>
  <text class="st0" transform="translate(853.88 215.5)"><tspan x="0" y="0">User input (walk1, walk2)</tspan></text>
  <line class="st5" x1="960" y1="235.44" x2="960" y2="250.05"/>
  <polygon class="st7" points="960 258.05 954 250.05 966 250.05 960 258.05"/>
  <rect id="step12" data-name="step1" class="st6" x="792.8" y="85.47" width="334.4" height="77.35"/>
  <g class="st2">
    <path class="st4" d="M813.14,117.31v-13.6h1.8v13.6h-1.8Z"/>
    <path class="st4" d="M817.9,117.31v-9.85h1.5v1.4c.72-1.08,1.77-1.62,3.14-1.62.59,0,1.14.11,1.64.32.5.21.87.49,1.12.84.25.35.42.76.52,1.23.06.31.09.85.09,1.62v6.06h-1.67v-5.99c0-.68-.06-1.19-.19-1.53-.13-.34-.36-.61-.69-.81s-.72-.3-1.16-.3c-.71,0-1.33.23-1.84.68-.52.45-.77,1.31-.77,2.57v5.38h-1.67Z"/>
    <path class="st4" d="M828.48,105.63v-1.92h1.67v1.92h-1.67ZM828.48,117.31v-9.85h1.67v9.85h-1.67Z"/>
    <path class="st4" d="M839.12,113.7l1.64.21c-.18,1.13-.64,2.02-1.38,2.66-.74.64-1.65.96-2.72.96-1.35,0-2.43-.44-3.25-1.32-.82-.88-1.23-2.14-1.23-3.79,0-1.06.18-2,.53-2.79s.89-1.4,1.61-1.79c.72-.4,1.5-.6,2.35-.6,1.07,0,1.95.27,2.63.81.68.54,1.12,1.31,1.31,2.31l-1.62.25c-.16-.66-.43-1.16-.82-1.49s-.87-.5-1.42-.5c-.84,0-1.53.3-2.05.9-.53.6-.79,1.56-.79,2.86s.25,2.29.76,2.88c.51.6,1.17.9,1.99.9.66,0,1.2-.2,1.64-.6.44-.4.72-1.02.83-1.86Z"/>
    <path class="st4" d="M842.2,105.63v-1.92h1.67v1.92h-1.67ZM842.2,117.31v-9.85h1.67v9.85h-1.67Z"/>
    <path class="st4" d="M852.84,116.1c-.62.53-1.21.9-1.79,1.11-.57.22-1.19.32-1.84.32-1.08,0-1.91-.26-2.5-.79-.58-.53-.87-1.21-.87-2.03,0-.48.11-.92.33-1.32.22-.4.51-.72.86-.96.36-.24.76-.42,1.2-.55.33-.09.82-.17,1.48-.25,1.35-.16,2.34-.35,2.98-.58,0-.23,0-.37,0-.44,0-.68-.16-1.16-.47-1.44-.43-.38-1.06-.57-1.9-.57-.79,0-1.37.14-1.74.41-.38.28-.65.76-.83,1.46l-1.63-.22c.15-.7.39-1.26.73-1.69.34-.43.83-.76,1.47-.99.64-.23,1.39-.35,2.24-.35s1.52.1,2.05.3.91.45,1.16.75c.25.3.42.68.52,1.14.06.28.08.8.08,1.54v2.23c0,1.55.04,2.54.11,2.95.07.41.21.81.42,1.18h-1.74c-.17-.35-.29-.75-.33-1.21ZM852.7,112.37c-.61.25-1.52.46-2.73.63-.69.1-1.17.21-1.46.33-.29.12-.5.31-.66.54-.15.24-.23.5-.23.79,0,.45.17.82.51,1.11.34.3.83.45,1.48.45s1.21-.14,1.72-.42c.5-.28.87-.67,1.1-1.15.18-.38.27-.93.27-1.67v-.61Z"/>
    <path class="st4" d="M856.94,117.31v-13.6h1.67v13.6h-1.67Z"/>
    <path class="st4" d="M861.21,105.63v-1.92h1.67v1.92h-1.67ZM861.21,117.31v-9.85h1.67v9.85h-1.67Z"/>
    <path class="st4" d="M864.54,117.31v-1.35l6.27-7.2c-.71.04-1.34.06-1.88.06h-4.02v-1.35h8.05v1.1l-5.33,6.25-1.03,1.14c.75-.06,1.45-.08,2.11-.08h4.55v1.44h-8.72Z"/>
    <path class="st4" d="M881.66,114.14l1.73.21c-.27,1.01-.78,1.79-1.51,2.35-.74.56-1.68.83-2.82.83-1.44,0-2.58-.44-3.43-1.33-.84-.89-1.27-2.13-1.27-3.73s.43-2.94,1.28-3.86,1.96-1.37,3.32-1.37,2.39.45,3.23,1.34c.83.9,1.25,2.16,1.25,3.79,0,.1,0,.25,0,.45h-7.35c.06,1.08.37,1.91.92,2.49.55.58,1.24.86,2.06.86.61,0,1.13-.16,1.57-.48.43-.32.78-.83,1.03-1.54ZM876.18,111.44h5.5c-.07-.83-.28-1.45-.63-1.86-.53-.64-1.22-.96-2.07-.96-.77,0-1.41.26-1.93.77-.52.51-.81,1.2-.87,2.06Z"/>
    <path class="st4" d="M893.96,121.31c-.92-1.16-1.7-2.52-2.34-4.08-.64-1.56-.96-3.17-.96-4.84,0-1.47.24-2.88.71-4.23.56-1.57,1.42-3.12,2.58-4.68h1.2c-.75,1.29-1.24,2.2-1.48,2.75-.38.85-.67,1.74-.89,2.67-.27,1.16-.4,2.32-.4,3.49,0,2.97.92,5.95,2.77,8.92h-1.2Z"/>
    <path class="st4" d="M896.42,114.37l1.65-.26c.09.66.35,1.17.77,1.52.42.35,1.02.53,1.78.53s1.34-.16,1.71-.47c.37-.31.56-.68.56-1.1,0-.38-.16-.67-.49-.89-.23-.15-.8-.34-1.71-.57-1.22-.31-2.07-.58-2.55-.8-.47-.23-.83-.54-1.08-.94-.24-.4-.37-.84-.37-1.32,0-.44.1-.85.3-1.22.2-.37.47-.69.82-.93.26-.19.61-.35,1.06-.49.45-.13.93-.2,1.44-.2.77,0,1.45.11,2.04.33.58.22,1.02.52,1.29.9.28.38.47.89.58,1.53l-1.63.22c-.07-.51-.29-.9-.65-1.19-.36-.28-.86-.43-1.51-.43-.77,0-1.31.13-1.64.38-.33.25-.49.55-.49.89,0,.22.07.41.2.58.14.18.35.33.64.45.17.06.66.2,1.48.43,1.18.32,2,.57,2.47.77.47.2.83.49,1.1.88s.4.86.4,1.43-.16,1.08-.49,1.57c-.33.49-.79.87-1.41,1.14-.61.27-1.31.4-2.08.4-1.28,0-2.26-.27-2.93-.8-.67-.53-1.1-1.32-1.28-2.37Z"/>
    <path class="st4" d="M913.33,114.14l1.73.21c-.27,1.01-.78,1.79-1.51,2.35-.74.56-1.68.83-2.82.83-1.44,0-2.58-.44-3.43-1.33-.84-.89-1.27-2.13-1.27-3.73s.43-2.94,1.28-3.86,1.96-1.37,3.32-1.37,2.39.45,3.23,1.34c.83.9,1.25,2.16,1.25,3.79,0,.1,0,.25,0,.45h-7.35c.06,1.08.37,1.91.92,2.49.55.58,1.24.86,2.06.86.61,0,1.13-.16,1.57-.48.43-.32.78-.83,1.03-1.54ZM907.85,111.44h5.5c-.07-.83-.28-1.45-.63-1.86-.53-.64-1.22-.96-2.07-.96-.77,0-1.41.26-1.93.77-.52.51-.81,1.2-.87,2.06Z"/>
    <path class="st4" d="M917.16,117.31v-9.85h1.5v1.4c.72-1.08,1.77-1.62,3.14-1.62.59,0,1.14.11,1.64.32.5.21.87.49,1.12.84.25.35.42.76.52,1.23.06.31.09.85.09,1.62v6.06h-1.67v-5.99c0-.68-.07-1.19-.2-1.53-.13-.34-.36-.61-.69-.81-.33-.2-.72-.3-1.17-.3-.71,0-1.33.23-1.84.68-.52.45-.78,1.31-.78,2.57v5.38h-1.67Z"/>
    <path class="st4" d="M927.06,114.37l1.65-.26c.09.66.35,1.17.77,1.52.42.35,1.02.53,1.78.53s1.34-.16,1.71-.47c.37-.31.56-.68.56-1.1,0-.38-.16-.67-.49-.89-.23-.15-.8-.34-1.71-.57-1.22-.31-2.07-.58-2.55-.8-.47-.23-.83-.54-1.08-.94-.24-.4-.37-.84-.37-1.32,0-.44.1-.85.3-1.22.2-.37.47-.69.82-.93.26-.19.61-.35,1.06-.49.45-.13.93-.2,1.44-.2.77,0,1.45.11,2.04.33.58.22,1.02.52,1.29.9.28.38.47.89.58,1.53l-1.63.22c-.07-.51-.29-.9-.65-1.19-.36-.28-.86-.43-1.51-.43-.77,0-1.31.13-1.64.38-.33.25-.49.55-.49.89,0,.22.07.41.2.58.14.18.35.33.64.45.17.06.66.2,1.48.43,1.18.32,2,.57,2.47.77.47.2.83.49,1.1.88s.4.86.4,1.43-.16,1.08-.49,1.57c-.33.49-.79.87-1.41,1.14-.61.27-1.31.4-2.08.4-1.28,0-2.26-.27-2.93-.8-.67-.53-1.1-1.32-1.28-2.37Z"/>
    <path class="st4" d="M936.6,112.39c0-1.83.51-3.18,1.52-4.05.85-.73,1.88-1.09,3.1-1.09,1.35,0,2.46.44,3.32,1.33.86.89,1.29,2.11,1.29,3.68,0,1.27-.19,2.27-.57,2.99-.38.73-.93,1.29-1.66,1.69-.73.4-1.52.6-2.38.6-1.38,0-2.49-.44-3.34-1.33-.85-.88-1.28-2.16-1.28-3.82ZM938.32,112.39c0,1.26.27,2.21.83,2.83s1.24.94,2.08.94,1.52-.32,2.07-.95c.55-.63.83-1.59.83-2.89,0-1.22-.28-2.14-.83-2.77s-1.24-.94-2.06-.94-1.53.31-2.08.94-.83,1.57-.83,2.83Z"/>
    <path class="st4" d="M947.77,117.31v-9.85h1.5v1.49c.38-.7.74-1.16,1.06-1.38.33-.22.68-.33,1.07-.33.56,0,1.13.18,1.72.54l-.58,1.55c-.41-.24-.82-.36-1.22-.36-.37,0-.69.11-.98.33-.29.22-.5.52-.62.91-.19.59-.28,1.24-.28,1.95v5.16h-1.67Z"/>
    <path class="st4" d="M968.18,109.31h-8.98v-1.56h8.98v1.56ZM968.18,113.44h-8.98v-1.56h8.98v1.56Z"/>
    <path class="st4" d="M975.31,110.6c0-1.61.17-2.9.5-3.88.33-.98.82-1.74,1.47-2.27s1.47-.8,2.46-.8c.73,0,1.37.15,1.92.44.55.29,1,.72,1.36,1.27s.64,1.23.84,2.02.31,1.87.31,3.21c0,1.6-.16,2.88-.49,3.86-.33.98-.82,1.74-1.47,2.27s-1.48.8-2.47.8c-1.31,0-2.34-.47-3.09-1.41-.9-1.13-1.35-2.98-1.35-5.53ZM977.02,110.6c0,2.23.26,3.72.78,4.46.52.74,1.17,1.11,1.93,1.11s1.41-.37,1.93-1.11.78-2.23.78-4.45-.26-3.73-.78-4.46-1.17-1.1-1.95-1.1-1.38.32-1.84.97c-.58.83-.86,2.36-.86,4.59Z"/>
    <path class="st4" d="M986.77,117.31v-1.9h1.9v1.9c0,.7-.12,1.26-.37,1.69-.25.43-.64.76-1.18,1l-.46-.71c.35-.16.61-.38.78-.68s.26-.73.28-1.29h-.95Z"/>
    <path class="st4" d="M998.71,117.31l-3.02-9.85h1.73l1.57,5.69.58,2.12c.02-.1.2-.78.51-2.03l1.57-5.77h1.72l1.47,5.71.49,1.88.57-1.9,1.69-5.7h1.62l-3.08,9.85h-1.74l-1.57-5.9-.38-1.68-1.99,7.58h-1.74Z"/>
    <path class="st4" d="M1017.05,116.1c-.62.53-1.21.9-1.79,1.11-.57.22-1.19.32-1.84.32-1.08,0-1.91-.26-2.5-.79-.58-.53-.87-1.21-.87-2.03,0-.48.11-.92.33-1.32.22-.4.51-.72.86-.96.36-.24.76-.42,1.2-.55.33-.09.82-.17,1.48-.25,1.35-.16,2.34-.35,2.98-.58,0-.23,0-.37,0-.44,0-.68-.16-1.16-.47-1.44-.43-.38-1.06-.57-1.9-.57-.79,0-1.37.14-1.74.41-.38.28-.65.76-.83,1.46l-1.63-.22c.15-.7.39-1.26.73-1.69.34-.43.83-.76,1.47-.99.64-.23,1.39-.35,2.24-.35s1.52.1,2.05.3.91.45,1.16.75c.25.3.42.68.52,1.14.06.28.08.8.08,1.54v2.23c0,1.55.04,2.54.11,2.95.07.41.21.81.42,1.18h-1.74c-.17-.35-.29-.75-.33-1.21ZM1016.91,112.37c-.61.25-1.52.46-2.73.63-.69.1-1.17.21-1.46.33-.29.12-.5.31-.66.54-.15.24-.23.5-.23.79,0,.45.17.82.51,1.11.34.3.83.45,1.48.45s1.21-.14,1.72-.42c.5-.28.87-.67,1.1-1.15.18-.38.27-.93.27-1.67v-.61Z"/>
    <path class="st4" d="M1021.15,117.31v-13.6h1.67v13.6h-1.67Z"/>
    <path class="st4" d="M1025.42,117.31v-13.6h1.67v7.76l3.95-4.01h2.16l-3.77,3.66,4.15,6.2h-2.06l-3.26-5.04-1.18,1.13v3.91h-1.67Z"/>
    <path class="st4" d="M1040.73,117.31h-1.67v-10.64c-.4.38-.93.77-1.58,1.15-.65.38-1.24.67-1.76.86v-1.61c.93-.44,1.75-.97,2.45-1.6s1.19-1.23,1.48-1.82h1.08v13.66Z"/>
    <path class="st4" d="M1045.91,117.31v-1.9h1.9v1.9c0,.7-.12,1.26-.37,1.69-.25.43-.64.76-1.18,1l-.46-.71c.35-.16.61-.38.78-.68s.26-.73.28-1.29h-.95Z"/>
    <path class="st4" d="M1057.85,117.31l-3.02-9.85h1.73l1.57,5.69.58,2.12c.02-.1.2-.78.51-2.03l1.57-5.77h1.72l1.47,5.71.49,1.88.57-1.9,1.69-5.7h1.62l-3.08,9.85h-1.74l-1.57-5.9-.38-1.68-1.99,7.58h-1.74Z"/>
    <path class="st4" d="M1076.18,116.1c-.62.53-1.21.9-1.79,1.11-.57.22-1.19.32-1.84.32-1.08,0-1.91-.26-2.5-.79-.58-.53-.87-1.21-.87-2.03,0-.48.11-.92.33-1.32.22-.4.51-.72.86-.96.36-.24.76-.42,1.2-.55.33-.09.82-.17,1.48-.25,1.35-.16,2.34-.35,2.98-.58,0-.23,0-.37,0-.44,0-.68-.16-1.16-.47-1.44-.43-.38-1.06-.57-1.9-.57-.79,0-1.37.14-1.74.41-.38.28-.65.76-.83,1.46l-1.63-.22c.15-.7.39-1.26.73-1.69.34-.43.83-.76,1.47-.99.64-.23,1.39-.35,2.24-.35s1.52.1,2.05.3.91.45,1.16.75c.25.3.42.68.52,1.14.06.28.08.8.08,1.54v2.23c0,1.55.04,2.54.11,2.95.07.41.21.81.42,1.18h-1.74c-.17-.35-.29-.75-.33-1.21ZM1076.04,112.37c-.61.25-1.52.46-2.73.63-.69.1-1.17.21-1.46.33-.29.12-.5.31-.66.54-.15.24-.23.5-.23.79,0,.45.17.82.51,1.11.34.3.83.45,1.48.45s1.21-.14,1.72-.42c.5-.28.87-.67,1.1-1.15.18-.38.27-.93.27-1.67v-.61Z"/>
    <path class="st4" d="M1080.28,117.31v-13.6h1.67v13.6h-1.67Z"/>
    <path class="st4" d="M1084.55,117.31v-13.6h1.67v7.76l3.95-4.01h2.16l-3.77,3.66,4.15,6.2h-2.06l-3.26-5.04-1.18,1.13v3.91h-1.67Z"/>
    <path class="st4" d="M1102.35,115.71v1.61h-8.99c-.01-.4.05-.79.19-1.16.23-.61.6-1.21,1.1-1.81s1.23-1.28,2.18-2.06c1.48-1.21,2.48-2.17,3-2.88.52-.71.78-1.38.78-2.01s-.24-1.22-.71-1.67c-.47-.46-1.09-.68-1.85-.68-.8,0-1.45.24-1.93.72s-.73,1.15-.73,2l-1.72-.18c.12-1.28.56-2.26,1.33-2.93s1.8-1.01,3.09-1.01,2.34.36,3.1,1.09c.76.72,1.14,1.62,1.14,2.69,0,.54-.11,1.08-.33,1.61s-.59,1.08-1.11,1.66c-.52.58-1.38,1.38-2.57,2.39-1,.84-1.65,1.41-1.93,1.71-.29.3-.52.6-.71.9h6.67Z"/>
    <path class="st4" d="M1105.04,117.31v-1.9h1.9v1.9c0,.7-.12,1.26-.37,1.69-.25.43-.64.76-1.18,1l-.46-.71c.35-.16.61-.38.78-.68s.26-.73.28-1.29h-.95Z"/>
    <path class="st4" d="M821.02,140.11l-3.02-9.85h1.73l1.57,5.69.58,2.12c.02-.1.2-.78.51-2.03l1.57-5.77h1.72l1.47,5.71.49,1.88.57-1.9,1.69-5.7h1.62l-3.08,9.85h-1.74l-1.57-5.9-.38-1.68-1.99,7.58h-1.74Z"/>
    <path class="st4" d="M839.35,138.9c-.62.53-1.21.9-1.79,1.11-.57.22-1.19.32-1.84.32-1.08,0-1.91-.26-2.5-.79-.58-.53-.87-1.21-.87-2.03,0-.48.11-.92.33-1.32.22-.4.51-.72.86-.96.36-.24.76-.42,1.2-.55.33-.09.82-.17,1.48-.25,1.35-.16,2.34-.35,2.98-.58,0-.23,0-.37,0-.44,0-.68-.16-1.16-.47-1.44-.43-.38-1.06-.57-1.9-.57-.79,0-1.37.14-1.74.41-.38.28-.65.76-.83,1.46l-1.63-.22c.15-.7.39-1.26.73-1.69.34-.43.83-.76,1.47-.99.64-.23,1.39-.35,2.24-.35s1.52.1,2.05.3.91.45,1.16.75c.25.3.42.68.52,1.14.06.28.08.8.08,1.54v2.23c0,1.55.04,2.54.11,2.95.07.41.21.81.42,1.18h-1.74c-.17-.35-.29-.75-.33-1.21ZM839.21,135.17c-.61.25-1.52.46-2.73.63-.69.1-1.17.21-1.46.33-.29.12-.5.31-.66.54-.15.24-.23.5-.23.79,0,.45.17.82.51,1.11.34.3.83.45,1.48.45s1.21-.14,1.72-.42c.5-.28.87-.67,1.1-1.15.18-.38.27-.93.27-1.67v-.61Z"/>
    <path class="st4" d="M843.45,140.11v-13.6h1.67v13.6h-1.67Z"/>
    <path class="st4" d="M847.72,140.11v-13.6h1.67v7.76l3.95-4.01h2.16l-3.77,3.66,4.15,6.2h-2.06l-3.26-5.04-1.18,1.13v3.91h-1.67Z"/>
    <path class="st4" d="M867.12,135.34l1.8.45c-.38,1.48-1.06,2.61-2.04,3.38-.98.78-2.18,1.17-3.6,1.17s-2.66-.3-3.58-.9c-.92-.6-1.62-1.46-2.1-2.59-.48-1.13-.72-2.35-.72-3.65,0-1.42.27-2.65.81-3.71s1.31-1.86,2.31-2.4c1-.55,2.1-.82,3.3-.82,1.36,0,2.5.35,3.43,1.04.93.69,1.57,1.67,1.94,2.92l-1.77.42c-.32-.99-.77-1.71-1.37-2.16-.6-.45-1.35-.68-2.26-.68-1.05,0-1.92.25-2.62.75s-1.2,1.17-1.48,2.02c-.29.84-.43,1.71-.43,2.61,0,1.16.17,2.17.51,3.03.34.86.86,1.51,1.57,1.93.71.43,1.48.64,2.31.64,1.01,0,1.86-.29,2.56-.87.7-.58,1.17-1.44,1.42-2.59Z"/>
    <path class="st4" d="M870.31,135.19c0-1.83.51-3.18,1.52-4.05.85-.73,1.88-1.09,3.1-1.09,1.35,0,2.46.44,3.32,1.33.86.89,1.29,2.11,1.29,3.68,0,1.27-.19,2.27-.57,2.99-.38.73-.93,1.29-1.66,1.69-.73.4-1.52.6-2.38.6-1.38,0-2.49-.44-3.34-1.33-.85-.88-1.28-2.16-1.28-3.82ZM872.02,135.19c0,1.26.27,2.21.83,2.83s1.24.94,2.08.94,1.52-.32,2.07-.95c.55-.63.83-1.59.83-2.89,0-1.22-.28-2.14-.83-2.77s-1.24-.94-2.06-.94-1.53.31-2.08.94-.83,1.57-.83,2.83Z"/>
    <path class="st4" d="M887.95,140.11v-1.45c-.77,1.11-1.81,1.67-3.13,1.67-.58,0-1.12-.11-1.63-.33-.5-.22-.88-.5-1.12-.84-.24-.34-.42-.75-.51-1.24-.07-.33-.1-.85-.1-1.56v-6.1h1.67v5.46c0,.87.03,1.46.1,1.76.1.44.33.78.67,1.03.34.25.76.38,1.26.38s.97-.13,1.41-.39c.44-.26.75-.61.93-1.05.18-.44.27-1.08.27-1.93v-5.28h1.67v9.85h-1.49Z"/>
    <path class="st4" d="M892.06,140.11v-9.85h1.5v1.4c.72-1.08,1.77-1.62,3.14-1.62.59,0,1.14.11,1.64.32.5.21.87.49,1.12.84.25.35.42.76.52,1.23.06.31.09.85.09,1.62v6.06h-1.67v-5.99c0-.68-.06-1.19-.19-1.53-.13-.34-.36-.61-.69-.81s-.72-.3-1.16-.3c-.71,0-1.33.23-1.84.68-.52.45-.77,1.31-.77,2.57v5.38h-1.67Z"/>
    <path class="st4" d="M906.28,138.62l.24,1.48c-.47.1-.89.15-1.26.15-.61,0-1.08-.1-1.41-.29-.33-.19-.57-.44-.71-.76-.14-.31-.2-.97-.2-1.97v-5.67h-1.22v-1.3h1.22v-2.44l1.66-1v3.44h1.68v1.3h-1.68v5.76c0,.48.03.78.09.92.06.14.15.24.29.33.13.08.32.12.57.12.19,0,.43-.02.73-.07Z"/>
    <path class="st4" d="M913.73,140.11h-1.67v-10.64c-.4.38-.93.77-1.58,1.15-.65.38-1.24.67-1.76.86v-1.61c.93-.44,1.75-.97,2.45-1.6.7-.62,1.19-1.23,1.48-1.82h1.08v13.66Z"/>
    <path class="st4" d="M932.54,132.11h-8.98v-1.56h8.98v1.56ZM932.54,136.24h-8.98v-1.56h8.98v1.56Z"/>
    <path class="st4" d="M939.66,133.4c0-1.61.17-2.9.5-3.88.33-.98.82-1.74,1.47-2.27s1.47-.8,2.46-.8c.73,0,1.37.15,1.92.44.55.29,1,.72,1.36,1.27s.64,1.23.84,2.02.31,1.87.31,3.21c0,1.6-.16,2.88-.49,3.86-.33.98-.82,1.74-1.47,2.27s-1.48.8-2.47.8c-1.31,0-2.34-.47-3.09-1.41-.9-1.13-1.35-2.98-1.35-5.53ZM941.38,133.4c0,2.23.26,3.72.78,4.46.52.74,1.17,1.11,1.93,1.11s1.41-.37,1.93-1.11.78-2.23.78-4.45-.26-3.73-.78-4.46-1.17-1.1-1.95-1.1-1.38.32-1.84.97c-.58.83-.86,2.36-.86,4.59Z"/>
    <path class="st4" d="M951.13,140.11v-1.9h1.9v1.9c0,.7-.12,1.26-.37,1.69-.25.43-.64.76-1.18,1l-.46-.71c.35-.16.61-.38.78-.68s.26-.73.28-1.29h-.95Z"/>
    <path class="st4" d="M963.07,140.11l-3.02-9.85h1.73l1.57,5.69.58,2.12c.02-.1.2-.78.51-2.03l1.57-5.77h1.72l1.47,5.71.49,1.88.57-1.9,1.69-5.7h1.62l-3.08,9.85h-1.74l-1.57-5.9-.38-1.68-1.99,7.58h-1.74Z"/>
    <path class="st4" d="M981.4,138.9c-.62.53-1.21.9-1.79,1.11-.57.22-1.19.32-1.84.32-1.08,0-1.91-.26-2.5-.79-.58-.53-.87-1.21-.87-2.03,0-.48.11-.92.33-1.32.22-.4.51-.72.86-.96.36-.24.76-.42,1.2-.55.33-.09.82-.17,1.48-.25,1.35-.16,2.34-.35,2.98-.58,0-.23,0-.37,0-.44,0-.68-.16-1.16-.47-1.44-.43-.38-1.06-.57-1.9-.57-.79,0-1.37.14-1.74.41-.38.28-.65.76-.83,1.46l-1.63-.22c.15-.7.39-1.26.73-1.69.34-.43.83-.76,1.47-.99.64-.23,1.39-.35,2.24-.35s1.52.1,2.05.3.91.45,1.16.75c.25.3.42.68.52,1.14.06.28.08.8.08,1.54v2.23c0,1.55.04,2.54.11,2.95.07.41.21.81.42,1.18h-1.74c-.17-.35-.29-.75-.33-1.21ZM981.26,135.17c-.61.25-1.52.46-2.73.63-.69.1-1.17.21-1.46.33-.29.12-.5.31-.66.54-.15.24-.23.5-.23.79,0,.45.17.82.51,1.11.34.3.83.45,1.48.45s1.21-.14,1.72-.42c.5-.28.87-.67,1.1-1.15.18-.38.27-.93.27-1.67v-.61Z"/>
    <path class="st4" d="M985.5,140.11v-13.6h1.67v13.6h-1.67Z"/>
    <path class="st4" d="M989.77,140.11v-13.6h1.67v7.76l3.95-4.01h2.16l-3.77,3.66,4.15,6.2h-2.06l-3.26-5.04-1.18,1.13v3.91h-1.67Z"/>
    <path class="st4" d="M1009.18,135.34l1.8.45c-.38,1.48-1.06,2.61-2.04,3.38-.98.78-2.18,1.17-3.6,1.17s-2.66-.3-3.58-.9c-.92-.6-1.62-1.46-2.1-2.59-.48-1.13-.72-2.35-.72-3.65,0-1.42.27-2.65.81-3.71s1.31-1.86,2.31-2.4c1-.55,2.1-.82,3.3-.82,1.36,0,2.5.35,3.43,1.04.93.69,1.57,1.67,1.94,2.92l-1.77.42c-.32-.99-.77-1.71-1.37-2.16-.6-.45-1.35-.68-2.26-.68-1.05,0-1.92.25-2.62.75s-1.2,1.17-1.48,2.02c-.29.84-.43,1.71-.43,2.61,0,1.16.17,2.17.51,3.03.34.86.86,1.51,1.57,1.93.71.43,1.48.64,2.31.64,1.01,0,1.86-.29,2.56-.87.7-.58,1.17-1.44,1.42-2.59Z"/>
    <path class="st4" d="M1012.36,135.19c0-1.83.51-3.18,1.52-4.05.85-.73,1.88-1.09,3.1-1.09,1.35,0,2.46.44,3.32,1.33.86.89,1.29,2.11,1.29,3.68,0,1.27-.19,2.27-.57,2.99-.38.73-.93,1.29-1.66,1.69-.73.4-1.52.6-2.38.6-1.38,0-2.49-.44-3.34-1.33-.85-.88-1.28-2.16-1.28-3.82ZM1014.08,135.19c0,1.26.27,2.21.83,2.83s1.24.94,2.08.94,1.52-.32,2.07-.95c.55-.63.83-1.59.83-2.89,0-1.22-.28-2.14-.83-2.77s-1.24-.94-2.06-.94-1.53.31-2.08.94-.83,1.57-.83,2.83Z"/>
    <path class="st4" d="M1030.01,140.11v-1.45c-.77,1.11-1.81,1.67-3.13,1.67-.58,0-1.12-.11-1.63-.33-.5-.22-.88-.5-1.12-.84-.24-.34-.42-.75-.51-1.24-.07-.33-.1-.85-.1-1.56v-6.1h1.67v5.46c0,.87.03,1.46.1,1.76.1.44.33.78.67,1.03.34.25.76.38,1.26.38s.97-.13,1.41-.39c.44-.26.75-.61.93-1.05.18-.44.27-1.08.27-1.93v-5.28h1.67v9.85h-1.49Z"/>
    <path class="st4" d="M1034.12,140.11v-9.85h1.5v1.4c.72-1.08,1.77-1.62,3.14-1.62.59,0,1.14.11,1.64.32.5.21.87.49,1.12.84.25.35.42.76.52,1.23.06.31.09.85.09,1.62v6.06h-1.67v-5.99c0-.68-.06-1.19-.19-1.53-.13-.34-.36-.61-.69-.81s-.72-.3-1.16-.3c-.71,0-1.33.23-1.84.68-.52.45-.77,1.31-.77,2.57v5.38h-1.67Z"/>
    <path class="st4" d="M1048.33,138.62l.24,1.48c-.47.1-.89.15-1.26.15-.61,0-1.08-.1-1.41-.29-.33-.19-.57-.44-.71-.76-.14-.31-.2-.97-.2-1.97v-5.67h-1.22v-1.3h1.22v-2.44l1.66-1v3.44h1.68v1.3h-1.68v5.76c0,.48.03.78.09.92.06.14.15.24.29.33.13.08.32.12.57.12.19,0,.43-.02.73-.07Z"/>
    <path class="st4" d="M1058.28,138.51v1.61h-8.99c-.01-.4.05-.79.2-1.16.23-.61.59-1.21,1.1-1.81.5-.59,1.23-1.28,2.19-2.06,1.48-1.21,2.48-2.17,3-2.88.52-.71.78-1.38.78-2.01s-.24-1.22-.71-1.67c-.47-.46-1.09-.68-1.85-.68-.8,0-1.45.24-1.93.72s-.73,1.15-.73,2l-1.72-.18c.12-1.28.56-2.26,1.33-2.93.77-.67,1.8-1.01,3.09-1.01s2.34.36,3.1,1.09c.76.72,1.14,1.62,1.14,2.69,0,.54-.11,1.08-.33,1.61s-.59,1.08-1.11,1.66c-.52.58-1.37,1.38-2.57,2.39-1,.84-1.65,1.41-1.93,1.71-.28.3-.52.6-.71.9h6.67Z"/>
    <path class="st4" d="M1074.59,132.11h-8.98v-1.56h8.98v1.56ZM1074.59,136.24h-8.98v-1.56h8.98v1.56Z"/>
    <path class="st4" d="M1081.72,133.4c0-1.61.17-2.9.5-3.88.33-.98.82-1.74,1.47-2.27s1.47-.8,2.46-.8c.73,0,1.37.15,1.92.44.55.29,1,.72,1.36,1.27s.64,1.23.84,2.02.31,1.87.31,3.21c0,1.6-.16,2.88-.49,3.86-.33.98-.82,1.74-1.47,2.27s-1.48.8-2.47.8c-1.31,0-2.34-.47-3.09-1.41-.9-1.13-1.35-2.98-1.35-5.53ZM1083.44,133.4c0,2.23.26,3.72.78,4.46.52.74,1.17,1.11,1.93,1.11s1.41-.37,1.93-1.11.78-2.23.78-4.45-.26-3.73-.78-4.46-1.17-1.1-1.95-1.1-1.38.32-1.84.97c-.58.83-.86,2.36-.86,4.59Z"/>
  </g>
  <line class="st5" x1="960" y1="162.82" x2="960" y2="177.44"/>
  <polygon class="st7" points="960 185.44 954 177.44 966 177.44 960 185.44"/>
  <polygon id="step2" class="st6" points="960 259.15 1085.48 299.15 960 339.15 834.52 299.15 960 259.15"/>
  <text class="st1" transform="translate(875.41 303.88)"><tspan x="0" y="0">walkCount1 == walk1?</tspan></text>
  <polygon id="step21" data-name="step2" class="st6" points="1210.01 391.97 1335.49 431.97 1210.01 471.97 1084.53 431.97 1210.01 391.97"/>
  <text class="st1" transform="translate(1125.42 436.7)"><tspan x="0" y="0">walkCount2 == walk2?</tspan></text>
  <text class="st3" transform="translate(1097.86 291.51)"><tspan x="0" y="0">True</tspan></text>
  <text class="st3" transform="translate(1349.29 420.12)"><tspan x="0" y="0">True</tspan></text>
  <text class="st3" transform="translate(1264.88 697.4)"><tspan x="0" y="0">True</tspan></text>
  <text class="st3" transform="translate(905.3 353.19)"><tspan x="0" y="0">False</tspan></text>
  <line class="st5" x1="959.74" y1="402.26" x2="959.74" y2="422.78"/>
  <polygon class="st7" points="959.74 424.12 953.74 416.12 965.74 416.12 959.74 424.12"/>
  <line class="st5" x1="1210.01" y1="368.27" x2="1210.01" y2="388.79"/>
  <polygon class="st7" points="1210.01 390.13 1204.01 382.13 1216.01 382.13 1210.01 390.13"/>
  <line class="st5" x1="959.74" y1="339.59" x2="959.74" y2="360.11"/>
  <polygon class="st7" points="959.74 361.45 953.74 353.45 965.74 353.45 959.74 361.45"/>
  <rect id="step3" class="st6" x="899.74" y="361.33" width="120" height="40"/>
  <text class="st0" transform="translate(941.92 387.2)"><tspan x="0" y="0">Walk</tspan></text>
  <rect id="step31" data-name="step3" class="st6" x="899.74" y="425.49" width="120" height="40"/>
  <text class="st1" transform="translate(906.86 449.35)"><tspan x="0" y="0">walkCount1++</tspan></text>
  <text class="st3" transform="translate(1155.57 488.74)"><tspan x="0" y="0">False</tspan></text>
  <text class="st3" transform="translate(1498.73 697.61)"><tspan x="0" y="0">False</tspan></text>
  <line class="st5" x1="1306.97" y1="668.07" x2="1306.97" y2="726.73"/>
  <polygon class="st7" points="1306.97 728.07 1300.97 720.07 1312.97 720.07 1306.97 728.07"/>
  <line class="st5" x1="1487.82" y1="668.07" x2="1487.82" y2="726.73"/>
  <polygon class="st7" points="1487.82 728.07 1481.82 720.07 1493.82 720.07 1487.82 728.07"/>
  <line class="st5" x1="1210.01" y1="471.97" x2="1210.01" y2="495.66"/>
  <polygon class="st7" points="1210.01 497 1204.01 489 1216.01 489 1210.01 497"/>
  <rect id="step32" data-name="step3" class="st6" x="1150.01" y="496.88" width="120" height="40"/>
  <text class="st0" transform="translate(1192.19 521.95)"><tspan x="0" y="0">Walk</tspan></text>
  <rect id="step33" data-name="step3" class="st6" x="1150.01" y="561.04" width="120" height="40"/>
  <text class="st1" transform="translate(1157.13 584.91)"><tspan x="0" y="0">walkCount2++</tspan></text>
  <line class="st5" x1="899.74" y1="445.64" x2="810.54" y2="445.64"/>
  <line class="st5" x1="1397.82" y1="431.97" x2="1333.32" y2="431.97"/>
  <line class="st5" x1="811.67" y1="445.49" x2="811.67" y2="299.15"/>
  <line class="st5" x1="810.54" y1="299.15" x2="833.13" y2="299.15"/>
  <line class="st5" x1="1150.01" y1="580.82" x2="1057.37" y2="580.82"/>
  <line class="st5" x1="1057.37" y1="580.67" x2="1057.37" y2="431.57"/>
  <line class="st5" x1="1057.37" y1="431.97" x2="1083.39" y2="431.97"/>
  <polygon class="st7" points="835.1 299.15 827.1 293.15 827.1 305.15 835.1 299.15"/>
  <polygon class="st7" points="1086.57 431.97 1078.57 425.97 1078.57 437.97 1086.57 431.97"/>
  <line class="st5" x1="1084.53" y1="299.15" x2="1210.01" y2="299.15"/>
  <line class="st5" x1="1210.01" y1="300.06" x2="1210.01" y2="327.22"/>
  <polygon class="st7" points="1210.01 326.18 1204.01 318.18 1216.01 318.18 1210.01 326.18"/>
  <rect id="step4" class="st6" x="1150.01" y="327.22" width="120" height="40"/>
  <text class="st0" transform="translate(1188.89 352.29)"><tspan x="0" y="0">Grab</tspan></text>
  <line class="st5" x1="1326.91" y1="668.07" x2="1307.52" y2="668.07"/>
  <line class="st5" x1="1375.45" y1="806.59" x2="1307.52" y2="806.59"/>
  <line class="st5" x1="1489.21" y1="668.07" x2="1469.82" y2="668.07"/>
  <line class="st5" x1="1489.21" y1="806.59" x2="1419.34" y2="806.59"/>
  <rect id="step7" class="st6" x="1337.82" y="468.95" width="120" height="40"/>
  <text class="st0" transform="translate(1374.96 496.88)"><tspan x="0" y="0">Throw</tspan></text>
  <line class="st5" x1="1397.82" y1="508.07" x2="1397.82" y2="548.07"/>
  <line class="st5" x1="1397.82" y1="432.72" x2="1397.82" y2="468.95"/>
  <polygon class="st7" points="1397.82 548.07 1391.82 540.07 1403.82 540.07 1397.82 548.07"/>
  <rect id="step8" class="st6" x="1337.82" y="548.07" width="120" height="40"/>
  <text class="st0" transform="translate(1343.83 573.13)"><tspan x="0" y="0">Read sensor</tspan></text>
  <line class="st5" x1="1397.82" y1="588.07" x2="1397.82" y2="628.07"/>
  <polygon class="st7" points="1397.82 628.07 1391.82 620.07 1403.82 620.07 1397.82 628.07"/>
  <polygon id="step9" class="st6" points="1397.82 628.07 1468.74 668.07 1397.82 708.07 1326.91 668.07 1397.82 628.07"/>
  <text class="st0" transform="translate(1343.08 673.14)"><tspan x="0" y="0">sensor == 1?</tspan></text>
  <line class="st5" x1="1307.82" y1="768.07" x2="1307.82" y2="806.59"/>
  <line class="st5" x1="1375.45" y1="806.59" x2="1375.45" y2="835.79"/>
  <line class="st5" x1="1419.34" y1="806.59" x2="1419.34" y2="835.79"/>
  <polygon class="st7" points="1375.45 835.79 1369.45 827.79 1381.45 827.79 1375.45 835.79"/>
  <line class="st5" x1="1487.82" y1="768.07" x2="1487.82" y2="806.59"/>
  <polygon class="st7" points="1419.34 835.79 1413.34 827.79 1425.34 827.79 1419.34 835.79"/>
  <text class="st0" transform="translate(1380.92 860.85)"><tspan x="0" y="0">End</tspan></text>
</svg>